# xmcd
#
# Track frame offsets:
#	150
#	24971
#	41992
#	61884
#	89850
#	90445
#	124132
#	148698
#
# Disc length: 2415 seconds
#
# Revision: 1
# Processed by: cddbd v1.4PL0 Copyright (c) Steve Scherf et al.
# Submitted via: EasyCDDAExtractor 5.1.0
#
DISCID=6c096d08
DTITLE=The Siegel-Schwall Band - Live - The Las Summer
DYEAR=1974
DGENRE=Blues
TTITLE0=Rock Me Baby
TTITLE1=You Don't Love Me Like That
TTITLE2=I Won't Hold My Breath
TTITLE3=Sun Is Shining
TTITLE4=Let's Boogie
TTITLE5=Hey Billie Jean
TTITLE6=West Coast Blues
TTITLE7=Out-A-Gas?
EXTD=[1470]
EXTT0=
EXTT1=
EXTT2=
EXTT3=
EXTT4=
EXTT5=
EXTT6=
EXTT7=
PLAYORDER=
